<svg xmlns="http://www.w3.org/2000/svg" xmlns:xlink="http://www.w3.org/1999/xlink" version="1.1" width="256" height="256" viewBox="0 0 256 256" xml:space="preserve">
<g style="stroke: none; stroke-width: 0; stroke-dasharray: none; stroke-linecap: butt; stroke-linejoin: miter; stroke-miterlimit: 10; fill: none; fill-rule: nonzero; opacity: 1;" transform="translate(1.4065934065934016 1.4065934065934016) scale(2.81 2.81)">
	<path d="M 18.785 90 c -0.523 0 -1.05 -0.137 -1.526 -0.418 c -1.217 -0.721 -1.766 -2.193 -1.317 -3.535 l 11.284 -33.678 H 15.681 c -0.965 0 -1.872 -0.464 -2.435 -1.248 c -0.564 -0.783 -0.716 -1.79 -0.41 -2.705 L 28.372 2.047 C 28.781 0.824 29.927 0 31.216 0 h 27.248 c 0.965 0 1.871 0.464 2.436 1.248 c 0.563 0.784 0.716 1.791 0.409 2.706 l -6.654 19.861 h 19.665 c 1.191 0 2.271 0.705 2.748 1.796 s 0.265 2.362 -0.543 3.238 L 20.991 89.034 C 20.407 89.668 19.601 90 18.785 90 z M 19.85 46.369 h 11.545 c 0.965 0 1.872 0.464 2.435 1.248 c 0.564 0.783 0.716 1.79 0.41 2.705 l -8.158 24.347 L 67.47 29.814 H 50.485 c -0.965 0 -1.871 -0.464 -2.436 -1.248 c -0.563 -0.784 -0.716 -1.791 -0.409 -2.706 L 54.295 6 h -20.92 L 19.85 46.369 z" style="stroke: none; stroke-width: 1; stroke-dasharray: none; stroke-linecap: butt; stroke-linejoin: miter; stroke-miterlimit: 10; fill: rgb(255 191 0); fill-rule: nonzero; opacity: 1;" transform=" matrix(1 0 0 1 0 0) " stroke-linecap="round"/>
</g>
</svg>