<svg xmlns="http://www.w3.org/2000/svg" xmlns:xlink="http://www.w3.org/1999/xlink" version="1.1" width="256" height="256" viewBox="0 0 256 256" xml:space="preserve">
<g style="stroke: none; stroke-width: 0; stroke-dasharray: none; stroke-linecap: butt; stroke-linejoin: miter; stroke-miterlimit: 10; fill: none; fill-rule: nonzero; opacity: 1;" transform="translate(1.4065934065934016 1.4065934065934016) scale(2.81 2.81)">
	<path d="M 45 90 c -0.634 0 -1.268 -0.172 -1.829 -0.516 C 17.867 73.972 5.206 52.473 4.461 23.759 c -0.034 -1.314 0.671 -2.536 1.825 -3.165 l 37.04 -20.168 c 1.044 -0.568 2.305 -0.568 3.348 0 l 37.04 20.168 c 1.154 0.628 1.859 1.851 1.825 3.165 c -0.745 28.713 -13.407 50.212 -38.71 65.725 C 46.269 89.828 45.634 90 45 90 z M 11.539 25.705 C 12.743 50.111 23.71 68.683 45 82.368 c 21.289 -13.686 32.257 -32.256 33.461 -56.663 L 45 7.485 L 11.539 25.705 z" style="stroke: none; stroke-width: 1; stroke-dasharray: none; stroke-linecap: butt; stroke-linejoin: miter; stroke-miterlimit: 10; fill: rgb(255 191 0); fill-rule: nonzero; opacity: 1;" transform=" matrix(1 0 0 1 0 0) " stroke-linecap="round"/>
	<path d="M 43.297 56.812 c -0.875 0 -1.707 -0.382 -2.277 -1.048 L 30.223 43.17 c -1.079 -1.258 -0.933 -3.151 0.325 -4.229 c 1.258 -1.079 3.151 -0.934 4.23 0.325 l 8.448 9.854 l 11.938 -14.813 c 1.04 -1.291 2.929 -1.494 4.219 -0.453 c 1.29 1.04 1.493 2.929 0.453 4.219 L 45.633 55.694 c -0.56 0.694 -1.399 1.104 -2.291 1.117 C 43.327 56.812 43.312 56.812 43.297 56.812 z" style="stroke: none; stroke-width: 1; stroke-dasharray: none; stroke-linecap: butt; stroke-linejoin: miter; stroke-miterlimit: 10; fill: rgb(255 191 0); fill-rule: nonzero; opacity: 1;" transform=" matrix(1 0 0 1 0 0) " stroke-linecap="round"/>
</g>
</svg>